# xmcd CD database file
#
# Track frame offsets:
#	150
#	102781
#	171804
#	207166
#	235103
#
# Disc length: 3958 seconds
#
# Revision: 0
# Processed by: cddbd v1.5.1PL0 Copyright (c) Steve Scherf et al.
# Submitted via: CDex 1.51
#
DISCID=360f7405
DTITLE=Steve Kimock Band - 03-11-01 Disc1
DYEAR=2003
DGENRE=Jazz
TTITLE0=Why Cant We All Just Samba
TTITLE1=Baby Baby
TTITLE2=Electric Wildlife
TTITLE3=Cowboy
TTITLE4=Long Form Part Four
EXTD=YEAR: 2003
EXTT0=
EXTT1=
EXTT2=
EXTT3=
EXTT4=
PLAYORDER=
